<svg xmlns="http://www.w3.org/2000/svg" xmlns:xlink="http://www.w3.org/1999/xlink" width="500" zoomAndPan="magnify" viewBox="0 0 375 374.999991" height="500" preserveAspectRatio="xMidYMid meet" version="1.0"><defs><clipPath id="3037024bf7"><path d="M 37.5 37.5 L 337.5 37.5 L 337.5 337.5 L 37.5 337.5 Z M 37.5 37.5 " clip-rule="nonzero"/></clipPath></defs><g clip-path="url(#3037024bf7)"><path fill="#000000" d="M 73.230469 234.800781 C 71.386719 233.765625 69.605469 232.703125 67.890625 231.617188 C 48.492188 219.335938 37.496094 203.863281 37.496094 187.480469 C 37.496094 171.097656 48.492188 155.625 67.890625 143.34375 C 69.605469 142.253906 71.386719 141.195312 73.230469 140.15625 C 72.660156 138.117188 72.152344 136.105469 71.707031 134.125 C 66.675781 111.726562 69.839844 93.007812 81.425781 81.425781 C 93.007812 69.839844 111.726562 66.675781 134.125 71.707031 C 136.105469 72.152344 138.117188 72.660156 140.15625 73.230469 C 141.195312 71.386719 142.253906 69.605469 143.34375 67.890625 C 155.625 48.492188 171.097656 37.496094 187.480469 37.496094 C 203.863281 37.496094 219.335938 48.492188 231.617188 67.890625 C 232.703125 69.605469 233.765625 71.386719 234.800781 73.230469 C 236.839844 72.660156 238.851562 72.152344 240.832031 71.707031 C 263.234375 66.675781 281.949219 69.839844 293.535156 81.425781 C 305.117188 93.007812 308.28125 111.726562 303.253906 134.125 C 302.808594 136.105469 302.296875 138.117188 301.726562 140.15625 C 303.574219 141.195312 305.355469 142.253906 307.070312 143.34375 C 326.464844 155.625 337.464844 171.097656 337.464844 187.480469 C 337.464844 203.863281 326.464844 219.335938 307.070312 231.617188 C 305.355469 232.703125 303.574219 233.765625 301.726562 234.800781 C 302.296875 236.839844 302.808594 238.851562 303.253906 240.832031 C 308.28125 263.234375 305.117188 281.949219 293.535156 293.535156 C 281.949219 305.117188 263.234375 308.28125 240.832031 303.253906 C 238.851562 302.808594 236.839844 302.296875 234.800781 301.726562 C 233.765625 303.574219 232.703125 305.355469 231.617188 307.070312 C 219.335938 326.464844 203.863281 337.464844 187.480469 337.464844 C 171.097656 337.464844 155.625 326.464844 143.34375 307.070312 C 142.253906 305.355469 141.195312 303.574219 140.15625 301.726562 C 138.117188 302.296875 136.105469 302.808594 134.125 303.253906 C 111.726562 308.28125 93.007812 305.117188 81.425781 293.535156 C 69.839844 281.949219 66.675781 263.234375 71.707031 240.832031 C 72.152344 238.851562 72.660156 236.839844 73.230469 234.800781 Z M 76.566406 150.453125 C 75.542969 151.058594 74.539062 151.667969 73.558594 152.292969 C 57.835938 162.246094 48.089844 174.199219 48.089844 187.480469 C 48.089844 200.757812 57.835938 212.710938 73.558594 222.667969 C 74.539062 223.289062 75.542969 223.902344 76.566406 224.503906 C 80.890625 212.695312 87.105469 200.183594 95.050781 187.480469 C 87.105469 174.777344 80.890625 162.265625 76.566406 150.453125 Z M 135.234375 82.871094 C 134.082031 82.574219 132.9375 82.296875 131.804688 82.042969 C 113.648438 77.964844 98.304688 79.523438 88.914062 88.914062 C 79.523438 98.304688 77.964844 113.648438 82.042969 131.804688 C 82.296875 132.9375 82.574219 134.082031 82.871094 135.234375 C 94.277344 129.9375 107.523438 125.488281 122.121094 122.121094 C 125.488281 107.523438 129.9375 94.277344 135.234375 82.871094 Z M 224.503906 76.566406 C 223.902344 75.542969 223.289062 74.539062 222.667969 73.558594 C 212.710938 57.835938 200.757812 48.089844 187.480469 48.089844 C 174.199219 48.089844 162.246094 57.835938 152.292969 73.558594 C 151.667969 74.539062 151.058594 75.542969 150.453125 76.566406 C 162.265625 80.890625 174.777344 87.105469 187.480469 95.050781 C 200.183594 87.105469 212.695312 80.890625 224.503906 76.566406 Z M 292.085938 135.234375 C 292.386719 134.082031 292.664062 132.9375 292.917969 131.804688 C 296.996094 113.648438 295.433594 98.304688 286.042969 88.914062 C 276.652344 79.523438 261.308594 77.964844 243.152344 82.042969 C 242.019531 82.296875 240.878906 82.574219 239.726562 82.871094 C 245.019531 94.277344 249.46875 107.523438 252.835938 122.121094 C 267.4375 125.488281 280.679688 129.9375 292.085938 135.234375 Z M 298.390625 224.503906 C 299.417969 223.902344 300.421875 223.289062 301.402344 222.667969 C 317.125 212.710938 326.871094 200.757812 326.871094 187.480469 C 326.871094 174.199219 317.125 162.246094 301.402344 152.292969 C 300.421875 151.667969 299.417969 151.058594 298.390625 150.453125 C 294.070312 162.265625 287.851562 174.777344 279.910156 187.480469 C 287.851562 200.183594 294.070312 212.695312 298.390625 224.503906 Z M 239.726562 292.085938 C 240.878906 292.386719 242.019531 292.664062 243.152344 292.917969 C 261.3125 296.996094 276.652344 295.433594 286.042969 286.042969 C 295.433594 276.652344 296.996094 261.3125 292.917969 243.152344 C 292.664062 242.019531 292.386719 240.878906 292.085938 239.726562 C 280.679688 245.019531 267.4375 249.46875 252.835938 252.835938 C 249.46875 267.4375 245.019531 280.679688 239.726562 292.085938 Z M 150.453125 298.390625 C 151.058594 299.417969 151.667969 300.421875 152.292969 301.402344 C 162.246094 317.125 174.199219 326.871094 187.480469 326.871094 C 200.757812 326.871094 212.710938 317.125 222.667969 301.402344 C 223.289062 300.421875 223.902344 299.417969 224.503906 298.390625 C 212.695312 294.070312 200.183594 287.851562 187.480469 279.910156 C 174.777344 287.851562 162.265625 294.070312 150.453125 298.390625 Z M 82.871094 239.726562 C 82.574219 240.878906 82.296875 242.019531 82.042969 243.152344 C 77.964844 261.3125 79.523438 276.652344 88.914062 286.042969 C 98.304688 295.433594 113.648438 296.996094 131.804688 292.917969 C 132.9375 292.664062 134.082031 292.386719 135.234375 292.085938 C 129.9375 280.679688 125.488281 267.4375 122.121094 252.835938 C 107.523438 249.46875 94.277344 245.019531 82.871094 239.726562 Z M 119.761719 133.546875 C 107.234375 136.710938 95.859375 140.730469 86.007812 145.449219 C 89.640625 155.75 94.839844 166.636719 101.460938 177.730469 C 105.996094 171.15625 110.980469 164.566406 116.382812 158.03125 C 117.183594 149.585938 118.320312 141.40625 119.761719 133.546875 Z M 101.460938 197.230469 C 94.839844 208.324219 89.640625 219.207031 86.007812 229.511719 C 95.859375 234.226562 107.234375 238.246094 119.761719 241.410156 C 118.320312 233.554688 117.183594 225.371094 116.382812 216.929688 C 110.980469 210.390625 105.996094 203.804688 101.460938 197.230469 Z M 177.730469 101.460938 C 166.636719 94.839844 155.75 89.640625 145.449219 86.007812 C 140.730469 95.859375 136.710938 107.234375 133.546875 119.761719 C 141.40625 118.320312 149.585938 117.183594 158.03125 116.382812 C 164.566406 110.980469 171.15625 105.996094 177.730469 101.460938 Z M 241.410156 119.761719 C 238.246094 107.234375 234.226562 95.859375 229.511719 86.007812 C 219.207031 89.640625 208.324219 94.839844 197.230469 101.460938 C 203.804688 105.996094 210.390625 110.980469 216.929688 116.382812 C 225.371094 117.183594 233.554688 118.320312 241.410156 119.761719 Z M 273.496094 177.730469 C 280.117188 166.636719 285.320312 155.75 288.949219 145.449219 C 279.097656 140.730469 267.722656 136.710938 255.199219 133.546875 C 256.640625 141.40625 257.773438 149.585938 258.574219 158.03125 C 263.980469 164.566406 268.960938 171.15625 273.496094 177.730469 Z M 255.199219 241.410156 C 267.722656 238.246094 279.097656 234.226562 288.949219 229.511719 C 285.320312 219.207031 280.117188 208.324219 273.496094 197.230469 C 268.960938 203.804688 263.980469 210.390625 258.574219 216.929688 C 257.773438 225.371094 256.640625 233.554688 255.199219 241.410156 Z M 197.230469 273.496094 C 208.324219 280.117188 219.207031 285.320312 229.511719 288.949219 C 234.226562 279.097656 238.246094 267.722656 241.410156 255.199219 C 233.554688 256.640625 225.371094 257.773438 216.929688 258.574219 C 210.390625 263.980469 203.804688 268.960938 197.230469 273.496094 Z M 133.546875 255.199219 C 136.710938 267.722656 140.730469 279.097656 145.449219 288.949219 C 155.75 285.320312 166.636719 280.117188 177.730469 273.496094 C 171.15625 268.960938 164.566406 263.980469 158.03125 258.574219 C 149.585938 257.773438 141.40625 256.640625 133.546875 255.199219 Z M 115.1875 176.699219 C 112.523438 180.292969 109.996094 183.890625 107.609375 187.480469 C 109.996094 191.066406 112.523438 194.664062 115.1875 198.261719 C 115.066406 194.699219 115.007812 191.105469 115.007812 187.480469 C 115.007812 183.855469 115.066406 180.257812 115.1875 176.699219 Z M 131.003906 131.003906 C 130.152344 135.226562 129.394531 139.558594 128.738281 143.984375 C 131.167969 141.382812 133.667969 138.796875 136.234375 136.234375 C 138.796875 133.667969 141.382812 131.167969 143.984375 128.738281 C 139.558594 129.394531 135.226562 130.152344 131.003906 131.003906 Z M 128.738281 230.972656 C 129.394531 235.398438 130.152344 239.730469 131.003906 243.953125 C 135.226562 244.804688 139.558594 245.5625 143.984375 246.222656 C 141.382812 243.789062 138.796875 241.289062 136.234375 238.726562 C 133.667969 236.164062 131.167969 233.578125 128.738281 230.972656 Z M 187.480469 107.609375 C 183.890625 109.996094 180.292969 112.523438 176.699219 115.1875 C 180.257812 115.066406 183.855469 115.007812 187.480469 115.007812 C 191.105469 115.007812 194.699219 115.066406 198.261719 115.1875 C 194.664062 112.523438 191.066406 109.996094 187.480469 107.609375 Z M 243.953125 131.003906 C 239.730469 130.152344 235.398438 129.394531 230.972656 128.738281 C 233.578125 131.167969 236.164062 133.667969 238.726562 136.234375 C 241.289062 138.796875 243.789062 141.382812 246.222656 143.984375 C 245.5625 139.558594 244.804688 135.226562 243.953125 131.003906 Z M 267.347656 187.480469 C 264.960938 183.890625 262.433594 180.292969 259.769531 176.699219 C 259.890625 180.257812 259.953125 183.855469 259.953125 187.480469 C 259.953125 191.105469 259.890625 194.699219 259.769531 198.261719 C 262.433594 194.664062 264.960938 191.066406 267.347656 187.480469 Z M 243.953125 243.953125 C 244.804688 239.730469 245.5625 235.398438 246.222656 230.972656 C 243.789062 233.578125 241.289062 236.164062 238.726562 238.726562 C 236.164062 241.289062 233.578125 243.789062 230.972656 246.222656 C 235.398438 245.5625 239.730469 244.804688 243.953125 243.953125 Z M 187.480469 267.347656 C 191.066406 264.960938 194.664062 262.433594 198.261719 259.769531 C 194.699219 259.890625 191.105469 259.953125 187.480469 259.953125 C 183.855469 259.953125 180.257812 259.890625 176.699219 259.769531 C 180.292969 262.433594 183.890625 264.960938 187.480469 267.347656 Z M 164.640625 198.140625 L 156.726562 217.554688 L 147.15625 213.652344 L 170.207031 157.109375 L 179.777344 157.109375 L 202.828125 213.652344 L 193.257812 217.554688 L 185.34375 198.140625 Z M 181.128906 187.804688 L 174.992188 172.746094 L 168.855469 187.804688 Z M 208.148438 156.269531 L 218.484375 156.269531 L 218.484375 216.519531 L 208.148438 216.519531 Z M 208.148438 156.269531 " fill-opacity="1" fill-rule="evenodd"/></g></svg>