<svg xmlns="http://www.w3.org/2000/svg" xmlns:xlink="http://www.w3.org/1999/xlink" width="500" zoomAndPan="magnify" viewBox="0 0 375 374.999991" height="500" preserveAspectRatio="xMidYMid meet" version="1.0"><defs><clipPath id="33883a4d54"><path d="M 7.972656 74.292969 L 367.222656 74.292969 L 367.222656 367.542969 L 7.972656 367.542969 Z M 7.972656 74.292969 " clip-rule="nonzero"/></clipPath><clipPath id="f812b641a6"><path d="M 117 149 L 367.222656 149 L 367.222656 367.542969 L 117 367.542969 Z M 117 149 " clip-rule="nonzero"/></clipPath><clipPath id="62ecb22ae6"><path d="M 117 256 L 243 256 L 243 367.542969 L 117 367.542969 Z M 117 256 " clip-rule="nonzero"/></clipPath><clipPath id="ab85ebabc6"><path d="M 7.972656 184 L 249 184 L 249 367.542969 L 7.972656 367.542969 Z M 7.972656 184 " clip-rule="nonzero"/></clipPath></defs><g clip-path="url(#33883a4d54)"><path fill="#c2dff6" d="M 367.210938 367.398438 L 7.96875 367.398438 L 7.96875 74.410156 L 367.210938 74.410156 L 367.210938 367.398438 " fill-opacity="1" fill-rule="nonzero"/></g><g clip-path="url(#f812b641a6)"><path fill="#00ccb3" d="M 367.210938 234.132812 L 288.449219 149.519531 L 117.472656 367.398438 L 367.210938 367.398438 L 367.210938 234.132812 " fill-opacity="1" fill-rule="nonzero"/></g><g clip-path="url(#62ecb22ae6)"><path fill="#00bfb3" d="M 242.34375 367.398438 L 204.535156 256.457031 L 117.472656 367.398438 Z M 242.34375 367.398438 " fill-opacity="1" fill-rule="nonzero"/></g><g clip-path="url(#ab85ebabc6)"><path fill="#00ccb3" d="M 7.96875 367.398438 L 7.96875 282.324219 L 98.261719 184.347656 L 248.105469 367.398438 L 7.96875 367.398438 " fill-opacity="1" fill-rule="nonzero"/></g><path fill="#ffd008" d="M 199.355469 135.25 C 199.355469 115.550781 183.390625 99.585938 163.695312 99.585938 C 144.003906 99.585938 128.039062 115.550781 128.039062 135.25 C 128.039062 154.945312 144.003906 170.910156 163.695312 170.910156 C 183.390625 170.910156 199.355469 154.945312 199.355469 135.25 " fill-opacity="1" fill-rule="nonzero"/></svg>