<svg xmlns="http://www.w3.org/2000/svg" xmlns:xlink="http://www.w3.org/1999/xlink" width="500" zoomAndPan="magnify" viewBox="0 0 375 374.999991" height="500" preserveAspectRatio="xMidYMid meet" version="1.0"><defs><g/></defs><g fill="#0086d4" fill-opacity="1"><g transform="translate(9.44861, 284.601458)"><g><path d="M 152.0625 -197.90625 L 152.0625 -70.15625 C 152.0625 -46.488281 145.863281 -28.550781 133.46875 -16.34375 C 121.082031 -4.144531 103.707031 1.953125 81.34375 1.953125 C 57.300781 1.953125 38.195312 -4.660156 24.03125 -17.890625 C 9.875 -31.117188 2.796875 -50.40625 2.796875 -75.75 L 64.015625 -75.75 C 64.015625 -67.738281 65.316406 -62.101562 67.921875 -58.84375 C 70.535156 -55.582031 74.078125 -53.953125 78.546875 -53.953125 C 82.273438 -53.953125 85.160156 -55.160156 87.203125 -57.578125 C 89.253906 -60.003906 90.28125 -64.195312 90.28125 -70.15625 L 90.28125 -197.90625 Z M 152.0625 -197.90625 "/></g></g></g><g fill="#0086d4" fill-opacity="1"><g transform="translate(174.360951, 284.601458)"><g><path d="M 146.46875 -101.46875 C 158.394531 -98.675781 167.664062 -92.945312 174.28125 -84.28125 C 180.90625 -75.613281 184.21875 -65.597656 184.21875 -54.234375 C 184.21875 -36.898438 178.484375 -23.523438 167.015625 -14.109375 C 155.554688 -4.703125 139.113281 0 117.6875 0 L 13.96875 0 L 13.96875 -197.90625 L 114.890625 -197.90625 C 135.015625 -197.90625 150.851562 -193.523438 162.40625 -184.765625 C 173.957031 -176.003906 179.734375 -163.238281 179.734375 -146.46875 C 179.734375 -134.914062 176.703125 -125.179688 170.640625 -117.265625 C 164.585938 -109.347656 156.53125 -104.082031 146.46875 -101.46875 Z M 76.03125 -120.75 L 100.078125 -120.75 C 105.660156 -120.75 109.800781 -121.867188 112.5 -124.109375 C 115.207031 -126.347656 116.5625 -129.796875 116.5625 -134.453125 C 116.5625 -139.296875 115.207031 -142.878906 112.5 -145.203125 C 109.800781 -147.535156 105.660156 -148.703125 100.078125 -148.703125 L 76.03125 -148.703125 Z M 104.265625 -49.75 C 109.859375 -49.75 114.003906 -50.820312 116.703125 -52.96875 C 119.398438 -55.113281 120.75 -58.609375 120.75 -63.453125 C 120.75 -72.953125 115.253906 -77.703125 104.265625 -77.703125 L 76.03125 -77.703125 L 76.03125 -49.75 Z M 104.265625 -49.75 "/></g></g></g></svg>